<svg xmlns="http://www.w3.org/2000/svg" width="24" height="24" viewBox="0 0 24 24">
  <g id="vuesax_bulk_directbox-notif" data-name="vuesax/bulk/directbox-notif" transform="translate(-108 -188)">
    <g id="directbox-notif">
      <path id="Vector" d="M15.76.23A8.021,8.021,0,0,0,13.72,0a2.862,2.862,0,0,0-2.09.7.647.647,0,0,0-.09.08l-.95,1.01a2.131,2.131,0,0,1-3.04-.01L6.6.78A.647.647,0,0,0,6.51.7,2.862,2.862,0,0,0,4.42,0,8.021,8.021,0,0,0,2.38.23C0,.87,0,2.76,0,4.42v.93C0,7.86,0,10.7,5.35,10.7h7.44c3.55,0,5.35-1.8,5.35-5.35V4.42C18.14,2.76,18.14.87,15.76.23ZM11.4,7.1H6.74a.7.7,0,0,1,0-1.4H11.4a.7.7,0,0,1,0,1.4Z" transform="translate(110.93 199.3)" fill="#675def"/>
      <path id="Vector-2" data-name="Vector" d="M10,0H4.42C0,0,0,2.35,0,4.42v5.79a.687.687,0,0,0,.27.55.7.7,0,0,0,.61.12,6.637,6.637,0,0,1,1.68-.18,1.516,1.516,0,0,1,1.21.38l.91.96a3.483,3.483,0,0,0,5.08,0l.91-.96a1.516,1.516,0,0,1,1.21-.38,6.637,6.637,0,0,1,1.68.18.695.695,0,0,0,.88-.67V4.42C14.42,2.35,14.42,0,10,0Z" transform="translate(112.79 190)" fill="#675def" opacity="0.4"/>
      <path id="Vector-3" data-name="Vector" d="M6.04.7a.694.694,0,0,1-.69.7H.69A.694.694,0,0,1,0,.7.694.694,0,0,1,.69,0H5.35A.694.694,0,0,1,6.04.7Z" transform="translate(116.98 205)" fill="#675def" opacity="0.4"/>
      <path id="Vector-4" data-name="Vector" d="M0,0H24V24H0Z" transform="translate(108 188)" fill="none" opacity="0"/>
    </g>
  </g>
</svg>
