<svg xmlns="http://www.w3.org/2000/svg" id="receipt-discount" width="24" height="24" viewBox="0 0 24 24">
  <path id="Vector" d="M6,4V6.42A2.4,2.4,0,0,1,3.42,9H0V2.01A2.019,2.019,0,0,1,2.02,0,3.995,3.995,0,0,1,6,4Z" transform="translate(16 2)" fill="none" stroke="#000000" stroke-linecap="round" stroke-linejoin="round" stroke-width="1.5"/>
  <path id="Vector-2" data-name="Vector" d="M0,5V19a1,1,0,0,0,1.6.8l1.71-1.28a1.007,1.007,0,0,1,1.32.1l1.66,1.67a1.008,1.008,0,0,0,1.42,0l1.68-1.68a.991.991,0,0,1,1.3-.09L12.4,19.8A1,1,0,0,0,14,19V2a2.006,2.006,0,0,1,2-2H4C1,0,0,1.79,0,4Z" transform="translate(2 2)" fill="none" stroke="#000000" stroke-linecap="round" stroke-linejoin="round" stroke-width="1.5"/>
  <path id="Vector-3" data-name="Vector" d="M0,5.46,5.46,0" transform="translate(6.27 8.27)" fill="none" stroke="#000000" stroke-linecap="round" stroke-linejoin="round" stroke-width="1.5"/>
  <path id="Vector-4" data-name="Vector" d="M0,0H24V24H0Z" fill="none" opacity="0"/>
  <path id="Vector-5" data-name="Vector" d="M.495.5H.5" transform="translate(11.43 13)" fill="none" stroke="#000000" stroke-linecap="round" stroke-linejoin="round" stroke-width="2"/>
  <path id="Vector-6" data-name="Vector" d="M.495.5H.5" transform="translate(5.7 8)" fill="none" stroke="#000000" stroke-linecap="round" stroke-linejoin="round" stroke-width="2"/>
</svg>