<svg id="vuesax_bulk_medal-star" data-name="vuesax/bulk/medal-star" xmlns="http://www.w3.org/2000/svg" width="34.207" height="34.207" viewBox="0 0 34.207 34.207">
  <g id="medal-star">
    <path id="Vector" d="M0,0H34.207V34.207H0Z" fill="none" opacity="0"/>
    <path id="Vector-2" data-name="Vector" d="M19.954,9.977a9.91,9.91,0,0,1-8.48,9.849,8.794,8.794,0,0,1-2.993,0A9.97,9.97,0,1,1,19.954,9.977Z" transform="translate(7.126 2.851)" fill="#5e9911" opacity="0.4"/>
    <path id="Vector-3" data-name="Vector" d="M27.466,7.939l-2.352.556A1.4,1.4,0,0,0,24.06,9.549l-.5,2.1a1.426,1.426,0,0,1-2.48.584l-6.8-7.811-6.8,7.825A1.426,1.426,0,0,1,5,11.659l-.5-2.1A1.42,1.42,0,0,0,3.45,8.509L1.1,7.953A1.429,1.429,0,0,1,.414,5.559L5.973,0a9.956,9.956,0,0,0,6.813,4.3,8.6,8.6,0,0,0,1.5.128,8.6,8.6,0,0,0,1.5-.128A9.956,9.956,0,0,0,22.592,0L28.15,5.559A1.419,1.419,0,0,1,27.466,7.939Z" transform="translate(2.821 18.386)" fill="#5e9911"/>
    <path id="Vector-4" data-name="Vector" d="M5.551.684l.841,1.682a1.032,1.032,0,0,0,.684.5L8.6,3.121c.969.157,1.2.869.5,1.568L7.917,5.872a1.01,1.01,0,0,0-.242.869L8.016,8.21c.271,1.154-.342,1.611-1.368,1L5.223,8.366a1,1,0,0,0-.941,0l-1.425.841c-1.026.6-1.639.157-1.368-1l.342-1.468a1.07,1.07,0,0,0-.242-.869L.405,4.689c-.7-.7-.47-1.4.5-1.568l1.525-.257a1.039,1.039,0,0,0,.67-.5L3.94.684C4.353-.228,5.095-.228,5.551.684Z" transform="translate(12.379 7.839)" fill="#5e9911"/>
  </g>
</svg>
