<svg xmlns="http://www.w3.org/2000/svg" width="28.604" height="28.604" viewBox="0 0 28.604 28.604">
  <g id="vuesax_bulk_smileys" data-name="vuesax/bulk/smileys" transform="translate(-300 -252)">
    <g id="smileys" transform="translate(300 252)">
      <path id="Vector" d="M0,0H28.6V28.6H0Z" fill="none" opacity="0"/>
      <path id="Vector-2" data-name="Vector" d="M14.3,3.575V9.535H13.11A3.586,3.586,0,0,0,9.535,13.11V14.3H3.575A3.571,3.571,0,0,1,0,10.726V3.575A3.571,3.571,0,0,1,3.575,0h7.151A3.571,3.571,0,0,1,14.3,3.575Z" transform="translate(2.384 2.384)" fill="#6e08f3" opacity="0.4"/>
      <g id="Group" transform="translate(5.306 5.77)">
        <path id="Vector-3" data-name="Vector" d="M.892,2.132a.878.878,0,0,1-.727-.381A.9.9,0,0,1,.379.5,2.745,2.745,0,0,1,3.5.475a.893.893,0,1,1-1,1.478.953.953,0,0,0-1.073.012A.943.943,0,0,1,.892,2.132Z" transform="translate(0 0)" fill="#6e08f3"/>
      </g>
      <g id="Group-2" data-name="Group" transform="translate(10.073 5.77)">
        <path id="Vector-4" data-name="Vector" d="M.892,2.132a.878.878,0,0,1-.727-.381A.9.9,0,0,1,.379.5,2.745,2.745,0,0,1,3.5.475a.893.893,0,1,1-1,1.478.953.953,0,0,0-1.073.012A.943.943,0,0,1,.892,2.132Z" transform="translate(0 0)" fill="#6e08f3"/>
      </g>
      <g id="Group-3" data-name="Group" transform="translate(5.423 8.855)">
        <path id="Vector-5" data-name="Vector" d="M4.3,5.649H1.537A1.541,1.541,0,0,1,0,4.112,4.112,4.112,0,0,1,6.686.906.891.891,0,1,1,5.578,2.3a2.3,2.3,0,0,0-1.454-.512A2.334,2.334,0,0,0,1.812,3.861h2.5a.9.9,0,0,1,.894.894A.911.911,0,0,1,4.3,5.649Z" fill="#6e08f3"/>
      </g>
      <path id="Vector-6" data-name="Vector" d="M5.405.143A.433.433,0,0,0,5.071,0H.447A.433.433,0,0,0,.113.143.419.419,0,0,0,.006.489,2.775,2.775,0,0,0,2.759,2.968,2.765,2.765,0,0,0,5.512.489.448.448,0,0,0,5.405.143Z" transform="translate(16.31 19.736)" fill="#6e08f3"/>
      <path id="Vector-7" data-name="Vector" d="M10.726,0H3.575A3.586,3.586,0,0,0,0,3.575v7.151A3.586,3.586,0,0,0,3.575,14.3h7.151A3.586,3.586,0,0,0,14.3,10.726V3.575A3.586,3.586,0,0,0,10.726,0ZM3.087,3.778a.9.9,0,0,1,1.251-.215.953.953,0,0,0,1.073.012.877.877,0,0,1,1.239.238.887.887,0,0,1-.238,1.239,2.782,2.782,0,0,1-1.537.477,2.684,2.684,0,0,1-1.573-.5A.9.9,0,0,1,3.087,3.778Zm4.064,8.343A4.12,4.12,0,0,1,3.039,8.009,1.541,1.541,0,0,1,4.577,6.472H9.725a1.541,1.541,0,0,1,1.537,1.537A4.12,4.12,0,0,1,7.151,12.121Zm4.028-7.079a2.782,2.782,0,0,1-1.537.477,2.684,2.684,0,0,1-1.573-.5A.9.9,0,0,1,9.105,3.552a.953.953,0,0,0,1.073.012.877.877,0,0,1,1.239.238A.9.9,0,0,1,11.179,5.041Z" transform="translate(11.918 11.918)" fill="#6e08f3"/>
    </g>
  </g>
</svg>
